<?xml version="1.0" encoding="utf-8"?>
<!-- Generator: Adobe Illustrator 27.5.0, SVG Export Plug-In . SVG Version: 6.00 Build 0)  -->
<svg version="1.1" id="Layer_1" xmlns="http://www.w3.org/2000/svg" xmlns:xlink="http://www.w3.org/1999/xlink" x="0px" y="0px"
	 viewBox="0 0 3000 2000" style="enable-background:new 0 0 3000 2000;" xml:space="preserve">
<rect style="fill:#FFFFFF;" width="3000" height="2000"/>
<g>
	<g>
		<path style="fill:#EEA886;" d="M2810.091,487.638c0,0-10.963-19.108-12.545-22.079c-1.582-2.968-0.623-12.313,1.411-22.947
			c2.034-10.635,9.541-24.091,11.266-24.814c1.721-0.722,3.128-2.249,7.813-1.243c4.685,1.01,8.09,4.437,8.09,4.437
			s6.359-1.469,10.234,3.07c0,0,6.049-1.108,9.61,4.768c0,0,5.932-0.922,8.155,3.566c0,0-0.943,9.37-0.295,12.935
			c0.652,3.57-4.769,27.676-10.792,45.748C2843.038,491.079,2833.694,501.47,2810.091,487.638z"/>
		<path style="fill:#CF8C6C;" d="M2819.396,457.764c0,0,8.823,6.679,10.351,9.811c1.527,3.128,21.806-11.404,21.806-11.404
			S2827.803,447.26,2819.396,457.764z"/>
		<g>
			<rect x="2461.242" y="542.667" style="fill:#292929;" width="2.452" height="60.947"/>
		</g>
		<path style="fill:#292929;" d="M2462.507,601.687v-0.011c0,0-0.025,0.003-0.04,0.003c0,0-0.023-0.003-0.038-0.003v0.011
			c-5.778,0.273-5.109,30.005-5.109,30.005h5.109h0.078h5.109C2467.616,631.691,2468.285,601.959,2462.507,601.687z"/>
		<g>
			<path style="fill:#272A45;" d="M2802.989,625.712c14.276-27.792,60.546-135.282,60.546-135.282l-59.311-9.137
				c0,0-23.639,54.009-34.891,91.39c-5.482,18.214-12.833,36.101-14.474,38.978c-1.637,2.872-77.335,60.203-85.575,64.417
				c-8.257,4.215-39.943,15.192-55.101,30.585c-15.157,15.382-7.776,36.462-7.776,36.462c32.138,41.34,91.501-12.41,91.501-12.41
				S2782.978,664.664,2802.989,625.712z"/>
		</g>
		<g>
			<path style="fill:#202338;" d="M2683.792,1675.955c0,0,20.402,21.423,41.114,25.911c20.712,4.487,35.197,10.212,35.354,22.506
				c0.157,12.293-59.602,20.395-83.303,8.002c-35.374-18.495-38.969-12.921-42.892-22.166c-3.921-9.246,4.712-33.969,4.457-36.911
				C2638.207,1669.666,2683.792,1675.955,2683.792,1675.955z"/>
		</g>
		<g>
			<path style="fill:#2F6B8C;" d="M2681.499,1665.706c0,0,2.694,10.037,2.293,10.249c-0.397,0.211-46.67,5.396-45.27-2.658
				c1.134-6.529,2.755-13.628,2.755-13.628L2681.499,1665.706z"/>
		</g>
		<g>
			<path style="fill:#202338;" d="M2453.34,1681.541c0,0,15.008,20.868,35.082,25.681c19.793,4.747,32.619,13.777,33.589,25.725
				c0.97,11.948-46.667,27.596-80.136,6.607c-21.991-13.788-30.194-13.005-34.624-21.766c-4.43-8.761,2.32-33.319,1.877-36.163
				C2408.58,1678.109,2453.34,1681.541,2453.34,1681.541z"/>
		</g>
		<g>
			<path style="fill:#2F6B8C;" d="M2452.728,1671.226c0,0,0.987,10.084,0.612,10.315c-0.376,0.229-44.476,8.035-44.212,0.083
				c0.208-6.315,2.795-14.171,2.795-14.171L2452.728,1671.226z"/>
		</g>
		<g>
			<path style="fill:#525252;" d="M2634.831,1062.975c0,0,21.428,155.648,30.179,208.267c10.233,61.524,13.7,112.354,16.555,144.2
				c3.588,40.05,3.569,245.015,6.082,256.729c2.512,11.706-54.604,5.881-54.604,5.881s-37.04-267.466-47.731-310.118
				c-9.953-39.718-38.938-211.268-48.02-200.426c-9.082,10.847-36.892,205.184-43.618,236.505
				c-6.725,31.325-34.47,278.377-34.47,278.377s-33.185,12.753-58.206,2.797c0,0,4.007-223.144,8.293-281.87
				c1.633-22.382-14.157-267.936,23.688-366.956C2452.979,984.028,2634.831,1062.975,2634.831,1062.975z"/>
		</g>
		<path style="fill:#272A45;" d="M2571.961,689.674c0,0,56.701,11.726,63.43,17.686c7.303,6.344,20.183,68.443,20.952,85.742
			c0.77,17.299-6.836,89.563-14.139,116.474c-7.305,26.91-5.962,159.451-1.349,196.74c0,0-114.167,32.426-226.419,17.817
			c0,0,18.818-139.442,14.325-176.316c-5.758-47.239-19.605-156.078-19.605-156.078s9.937-75.811,19.932-84.27
			c9.995-8.458,78.864-17.795,78.864-17.795H2571.961z"/>
		<path style="fill:#EEA886;" d="M2548.52,514.347c0,0,68.206-25.237,63.942,65.402c-4.264,90.642-20.247,99.852-65.116,87.193
			c-44.868-12.658-48.628-69.865-54.471-97.384C2487.032,542.041,2526.214,518.306,2548.52,514.347z"/>
		<path style="fill:#EEA886;" d="M2580.882,701.947c0,0-14.037,9.282-67.259-14.164c0,0,1.504-36.487-8.938-70.565
			c-10.439-34.081,71.42,45.438,71.42,45.438c-0.856,0.609-1.022,4.014-0.532,8.765c0.416,4.029,1.298,9.02,2.627,14.084
			C2581.189,696.897,2580.882,692.004,2580.882,701.947z"/>
		<path style="fill:#525252;" d="M2502.355,614.512c0,0-0.192-24.212,9.875-26.44c10.07-2.228,15.256,11.769,15.256,11.769
			l8.107-0.437c0,0-7.247-24.537,2.353-30.162c9.602-5.626,67.025-0.682,74.233-8.943c7.205-8.261-3.245-57.323-18.913-62.14
			c-15.668-4.816-58.467-14.583-85.644,9.622c0,0-23.641,0.448-24.588,19.698C2482.087,546.733,2494.164,601.384,2502.355,614.512z"
			/>
		<path style="fill:#A77860;" d="M2578.2,685.504c-52.868-8.889-60.769-38.952-60.887-39.422
			c20.552,26.502,58.26,25.338,58.26,25.338C2575.989,675.449,2576.871,680.44,2578.2,685.504z"/>
		<path style="fill:#EEA886;" d="M2523.63,577.791c-3.014-7.988-20.025-6.981-18.284,5.684
			c1.742,12.662,15.803,32.164,21.448,28.506C2532.439,608.322,2527.782,588.806,2523.63,577.791z"/>
		<path style="fill:#272A45;" d="M2636.112,706.792c0,0,32.222,43.13,20.285,154.656c-21.566,201.527,34.916,525.029,34.916,525.029
			l-58.271,9.752c0,0-55.684-405.066-41.503-555.153c6.462-68.396,25.64-91.153-4.615-148.134
			C2586.925,692.941,2616.383,693.926,2636.112,706.792z"/>
		<path style="fill:#272A45;" d="M2492.29,692.004c0,0,92.227,93.158,99.449,163.785c7.224,70.624,41.304,540.439,41.304,540.439
			l-241.885-4.302c0,0,20.182-252.484,25.105-284.068c4.925-31.584,15.115-212.935-7.107-297.088
			c-11.94-45.208,2.264-102.561,29.54-108.824C2465.973,695.687,2492.29,692.004,2492.29,692.004z"/>
		<path style="fill:#272A45;" d="M2461.118,704.072c0,0,35.52,9.782,15.978,74.973c-15.305,51.063-17.372,62.03-17.372,62.03
			l-81.962-20.475c0,0,24.031-112.164,63.25-118.194C2441.012,702.406,2453.496,700.63,2461.118,704.072z"/>
		<polygon style="fill:#BF2E2E;" points="2625.045,953.709 2506.976,1121.694 2399.155,1045.912 2513.013,874.967 		"/>
		<g>
			<g>
				<g>
					<g>
						<g>
							<path style="fill:#EEA886;" d="M2561.857,1071.798c0,0-5.238-0.445-7.434-1.754c0,0-3.813-2.694-6.639-4.444
								c-0.898-0.551-1.693-1.014-2.238-1.258c-2.275-1.021-7.576-2.585-12.353-6.573c-4.772-3.981-20.938-26.469-20.938-26.469
								l9.671-12.188l7.429-12.701c0,0,37.638,5.825,42.514,9.023c0.476,0.317,0.934,0.645,1.338,0.987
								c3.866,3.106,5.438,7.044,7.28,8.907c0.673,0.688,6.902,7.976,6.41,10.802c-0.677,3.92-2.736,6.359-5.235,7.445
								c0,0-1.666,7.616-5.784,10.872c0,0-1.311,7.072-7.586,9.661C2568.292,1064.108,2566.158,1071.138,2561.857,1071.798z"/>
						</g>
					</g>
				</g>
			</g>
		</g>
		<path style="fill:#181A2B;" d="M2445.696,837.571c0,0-10.708,69.687-9.959,74.153
			C2436.488,916.194,2387.259,897.727,2445.696,837.571z"/>
		<path style="fill:#272A45;" d="M2465.365,708.436c7.436,2.88,10.25,16.078,7.193,54.327c-3.054,38.252-16.52,55.847-21.543,64.692
			c-5.024,8.848-32.652,63.386-27.687,70.562c4.966,7.175,51.873,53.452,54.587,57.221c2.717,3.769,55.087,51.173,55.087,51.173
			l-44.678,56.575c0,0-95.074-107.65-103.897-116.466c-8.823-8.819-35.194-27.351-25.44-58.158
			c9.915-31.31,27.732-104.613,30.897-110.345C2393.049,772.286,2416.203,689.401,2465.365,708.436z"/>
		<path style="fill:#272A45;" d="M2593.807,693.5c0,0,24.762,7.977,60.305-10.785c35.544-18.758-34.063,50.976-34.063,50.976
			L2593.807,693.5z"/>
		<path style="fill:#272A45;" d="M2731.075,703.759c0,0-71.731,85.969-72.046,106.298c-0.316,20.329-17.053-60.813-17.053-60.813
			L2731.075,703.759z"/>
		<polygon style="fill:#272A45;" points="2614.504,542.336 2674.995,517.865 2563.317,468.65 2420.536,542.336 2487.478,567.08 		
			"/>
		<path style="fill:#C4B5AE;" d="M2492.29,692.004c0,0,54.711,36.845,94.635,46.404c1.66,0.397,0-45.468,0-45.468
			S2553.374,679.514,2492.29,692.004z"/>
		<path style="fill:#EEA886;" d="M2530.439,686.31c0,0,21.693,10.395,38.553,11.951c0,0,8.727-3.259,9.208-12.757L2530.439,686.31z"
			/>
		<path style="fill:#F08D29;" d="M2507.447,689.329l79.478,49.08l-156.461-32.806
			C2430.464,705.603,2455.286,695.701,2507.447,689.329z"/>
		<path style="fill:#F08D29;" d="M2586.925,738.409v-45.468c0,0,32.058-0.484,42.089-0.455L2586.925,738.409z"/>
		<path style="fill:#EAD8CF;" d="M2513.642,677.698c0,0,27.821,16.782,55.351,20.563l-10.135,27.781l-51.41-36.713L2513.642,677.698
			z"/>
		<path style="fill:#EAD8CF;" d="M2578.2,685.504c0,0-2.932,9.618-9.208,12.757l19.631,20.963l-1.698-26.283L2578.2,685.504z"/>
		<path style="fill:#51578F;" d="M2614.286,553.966c0,0-58.559-6.712-124.1,23.37l-5.653-20.209c0,0,73.874-27.759,131.055-20.876
			L2614.286,553.966z"/>
		<g>
			
				<rect x="2682.382" y="427.689" transform="matrix(0.9886 0.1508 -0.1508 0.9886 98.8698 -418.1095)" style="fill:#EDDAD3;" width="249.106" height="30.638"/>
		</g>
		<g>
			
				<rect x="2790.517" y="427.689" transform="matrix(0.9886 0.1508 -0.1508 0.9886 98.8808 -418.1435)" style="fill:#E03636;" width="32.838" height="30.64"/>
		</g>
		<g>
			<path style="fill:#E03636;" d="M2749.804,505.917l-9.64-2.698c0.273-0.98,7.047-24.106,34.817-30.585
				c8.554-1.994,14.069-7.102,16.392-15.189c1.809-6.285,1.032-12.104,1.021-12.163l9.905-1.451
				c0.048,0.317,1.123,7.934-1.305,16.381c-2.337,8.134-8.353,18.582-23.738,22.174
				C2755.192,487.535,2749.854,505.735,2749.804,505.917z"/>
		</g>
		<path style="fill:#DB9C7C;" d="M2809.581,420.565c0,0-4.499,27.081-0.227,28.343c4.273,1.265,6.61-0.86,6.61-0.86l3.201,11.984
			c0,0,6.603,6.737,12.013-2.421c0,0,5.513,6.931,9.684-2.534c0,0,5.68,2.949,8.385-1.094c2.705-4.044,4.878-21.587,4.878-21.587
			s-1.206-3.909-8.155-3.566c0,0-3.08-5.833-9.61-4.768c0,0-3.193-4.284-10.234-3.07c0,0-7.874-8.998-15.902-3.194
			C2810.223,417.798,2809.763,419.424,2809.581,420.565z"/>
		<path style="fill:#EEA886;" d="M2797.594,464.694c0,0,11.221-15.13,20.978-20.701c2.206-1.262,4.575-2.078,6.577-0.503
			c2.002,1.571,2.264,6.468-2.264,13.271c-4.524,6.803-7.263,17.668-7.263,17.668S2808.921,480.058,2797.594,464.694z"/>
		<g>
			<path style="fill:#E03636;" d="M2766.972,518.988c-0.116-1.014-2.577-24.981,20.687-41.467
				c7.168-5.079,10.344-11.893,9.442-20.256c-0.7-6.504-3.616-11.597-3.646-11.645l8.622-5.09c0.165,0.277,4.036,6.923,4.98,15.663
				c0.904,8.415-0.718,20.362-13.609,29.499c-18.299,12.964-16.606,31.401-16.526,32.182L2766.972,518.988z"/>
		</g>
	</g>
	<g>
		<path style="fill:#EEA886;" d="M566.438,880.605c0,0,18.136,8.255,22.318,1.437c4.182-6.818,13.102-13.907,16.023-15.997
			c3.907-2.792,13.041-15.867,16.234-10.935c3.19,4.936-14.101,22.264-17.066,26.619c-2.962,4.355,19.396,1.77,23.684,4.637
			c4.287,2.867,4.498,41.552-10.958,41.48c-15.456-0.068-31.426-10.792-34.174-10.242c-2.745,0.55-20.498-3.492-20.498-3.492
			L566.438,880.605z"/>
		<path style="fill:#EEA886;" d="M624.067,885.463c0,0,47.15,3.496,49.98,6.482c2.826,2.986,2.368,5.652-2.063,5.517
			c-4.429-0.133-45.713-1.994-45.713-1.994s54.681,13.955,57.538,15.847c1.671,1.107,1.077,6.308-1.311,6.464
			c-2.388,0.156-57.501-10.402-57.501-10.402s51.033,13.127,52.932,15.477c1.662,2.056-0.023,6.743-3.886,6.043
			s-52.018-10.055-52.018-10.055s36.453,12.022,36.888,15.052c0.269,1.855-0.048,6.363-9.345,2.948
			c-9.301-3.41-32.159-9.019-32.159-9.019L624.067,885.463z"/>
		<g>
			<path style="fill:#C4C6D1;" d="M129.81,1676.539c0,0-12.573,8.971-19.536,15.256c-6.964,6.284-16.438,13.122-22.24,29.159
				c-5.873,16.231,3.38,27.892,19.098,28.85c15.715,0.961,39.799-10.904,42.146-25.294c2.324-14.243,20.786-12.568,23.191-22.705
				c2.408-10.137-0.809-22.607-0.809-22.607L129.81,1676.539z"/>
		</g>
		<g>
			<path style="fill:#EEA886;" d="M131.902,1664.755l-2.092,11.784c0,0,6.471,11.978,41.851,2.659l-1.824-11.61L131.902,1664.755z"
				/>
		</g>
		<path style="fill:#C4C6D1;" d="M171.661,1679.198c0,0-7.969,1.047-13.645,1.94c-5.677,0.89-16.92-6.363-28.205-4.6l3.472,14.328
			C133.282,1690.867,170.869,1683.829,171.661,1679.198z"/>
		<g>
			<path style="fill:#C4C6D1;" d="M355.577,1676.539c0,0,12.572,8.971,19.536,15.256c6.964,6.284,16.438,13.122,22.24,29.159
				c5.87,16.231-3.38,27.892-19.098,28.85c-15.714,0.961-39.803-10.904-42.146-25.294c-2.324-14.243-20.786-12.568-23.191-22.705
				c-2.409-10.137,0.808-22.607,0.808-22.607L355.577,1676.539z"/>
		</g>
		<g>
			<path style="fill:#EEA886;" d="M353.484,1664.755l2.093,11.784c0,0-6.471,11.978-41.851,2.659l1.825-11.61L353.484,1664.755z"/>
		</g>
		<g>
			<path style="fill:#292C47;" d="M368.271,1024.009c0,0-121.938-24.043-185.156-1.328c-2.643,0.948-5.181,1.978-7.603,3.095
				c0,0-0.149,1.077-0.428,3.099c-0.632,4.67-1.957,14.413-3.716,27.671c-0.299,2.229-0.605,4.559-0.928,6.981
				c-8.999,68.123-22.447,167.138-25.019,215.453c-3.376,63.388-6.893,72.414-6.899,84.334
				c-0.011,32.125-11.295,302.678-11.295,302.678s19.138,10.268,48.658,0c0,0,34.829-268.375,40.872-288.23
				c6.04-19.852,48.831-200.813,56.4-201.676c7.568-0.862,28.551,191.236,30.145,217.353c1.597,26.105,0.085,268.382,8.72,272.696
				c8.632,4.317,43.706,4.767,46.294-3.866c0,0,10.249-246.284,10.249-272.18c0-25.898,8.36-227.658,7.626-236.304
				C376.193,1153.784,378.571,1090.438,368.271,1024.009z"/>
		</g>
		<g>
			<path style="fill:#FA6F41;" d="M311.409,675.856c0,0,103.537,21.982,112.168,50.758c8.632,28.773,23.976,76.116,42.792,150.89
				c2.83,11.241,109.719-3.832,109.719-3.832s8.896,45.584,9.134,47.048c0.646,3.977-144.385,11.335-154.852,8.679
				c-15.103-3.832-40.553-104.957-40.553-104.957s-13.71,152.762-13.71,176.357c0,23.596,1.559,71.374,1.559,71.374
				s-38.366,14.695-112.865,10.813c0,0-118.569-4.073-98.333-40.214c15.303-27.324,5.924-211.159,3.621-212.311
				c-2.303-1.152-43.638,50.622-39.609,60.588c4.029,9.967,111.006,45.716,111.006,45.716s3.126,11.522-13.493,37.625
				c0,0-159.79-46.695-160.364-56.478c-0.578-9.78,66.461-199.773,88.356-209.716c31.517-14.319,113.941-36.83,113.941-36.83
				L311.409,675.856z"/>
		</g>
		<path style="fill:#C4C6D1;" d="M313.725,1679.198c0,0,7.97,1.047,13.646,1.94c5.676,0.89,16.917-6.363,28.205-4.6l-3.472,14.328
			C352.105,1690.867,314.517,1683.829,313.725,1679.198z"/>
		
			<rect x="151.33" y="843.087" transform="matrix(0.9603 0.2788 -0.2788 0.9603 270.1487 -22.6284)" style="fill:#D9C7C1;" width="126.591" height="190.636"/>
		
			<rect x="139.692" y="839.711" transform="matrix(0.9603 0.2788 -0.2788 0.9603 268.7442 -19.5176)" style="fill:#6DBD7D;" width="126.591" height="190.632"/>
		
			<rect x="124.396" y="788.009" transform="matrix(0.9603 0.2788 -0.2788 0.9603 259.3867 -20.0048)" style="fill:#EDDAD3;" width="151.253" height="227.77"/>
		
			<rect x="110.489" y="783.974" transform="matrix(0.9604 0.2788 -0.2788 0.9604 257.6873 -16.2892)" style="fill:#548AD1;" width="151.252" height="227.768"/>
		
			<rect x="157.331" y="828.514" transform="matrix(0.9603 0.2788 -0.2788 0.9603 240.7861 -22.6506)" style="fill:#609EF0;" width="85.382" height="13.307"/>
		
			<rect x="148.659" y="852.559" transform="matrix(0.9603 0.2788 -0.2788 0.9603 247.1472 -19.2791)" style="fill:#609EF0;" width="85.382" height="13.305"/>
		<path style="fill:#E6A281;" d="M274.688,931.476c0,0,11.55-0.316,15.086-0.829c3.536-0.51,1.203,7.011-2.905,8.428
			C282.766,940.494,274.688,931.476,274.688,931.476z"/>
		<path style="fill:#EEA886;" d="M281.438,986.636c0,0-5.041,1.226-7.507,0.686c0,0-4.413-1.328-7.606-2.082
			c-1.012-0.234-1.902-0.418-2.486-0.476c-2.449-0.245-7.901-0.051-13.619-2.289c-5.714-2.232-25.1-12.175-25.1-12.175l5.543-18.021
			l4.179-14.277c0,0,32.764-8.72,38.328-7.252c0.543,0.146,1.073,0.313,1.563,0.506c4.589,1.699,7.293,4.892,9.6,6.057
			c0.846,0.434,8.958,5.309,9.379,8.105c0.594,3.879-0.571,6.808-2.568,8.608c0,0,0.822,7.65-2.015,11.985
			c0,0,0.988,7.032-4.073,11.417C285.056,977.426,285.256,984.672,281.438,986.636z"/>
		<path style="fill:#FA6F41;" d="M241.489,935.643c0,0,0.275,24.142-14.621,42.177c0,0-116.214-40.04-130.189-45.537
			c-13.975-5.496,50.785-177.581,50.785-177.581l47.646,16.221l-25.599,48.407c0,0-12.671,27.118-39.028,71.721
			C130.482,891.051,146.703,905.329,241.489,935.643z"/>
		<path style="fill:#EED9CF;" d="M235.629,681.172c0,0-1.158,46.06,46.284,44.956c49.107-1.141,38.698-48.148,38.698-48.148
			S283.442,661.795,235.629,681.172z"/>
		<path style="fill:#EEA886;" d="M309.728,639.848c0,0-4.267,23.381,3.071,39.348c0,0,7.47,37.214-30.627,38.882
			c-38.097,1.668-37.683-40.142-37.683-40.142s7.827-4.559,1.743-37.856C240.147,606.782,309.728,639.848,309.728,639.848z"/>
		<g>
			<path style="fill:#EEA886;" d="M286.567,504.634c0,0,48.747,7.864,41.324,85.971c-7.422,78.103-50.445,71.704-53.319,71.622
				c-2.877-0.078-43.192,1.427-46.335-93.937C228.237,568.29,226.865,497.776,286.567,504.634z"/>
		</g>
		<g>
			<path style="fill:#EEA886;" d="M328.646,568.542c0,0,5.34-5.839,7.297,0.072c1.957,5.914-6.954,31.371-7.613,33.507
				c0,0-0.975,2.293-2.256,1.033C324.793,601.89,328.646,568.542,328.646,568.542z"/>
		</g>
		<g>
			<path style="fill:#EEA886;" d="M229.419,567.553c0,0-5.228-5.941-7.296-0.071c-2.069,5.874,6.556,32.655,6.98,33.654
				c0,0,0.931,2.31,2.235,1.073C232.643,600.973,229.419,567.553,229.419,567.553z"/>
		</g>
		<g>
			<path style="fill:#434343;" d="M328.621,580.523l-6.977,9.552c0,0,0.197-20.946-0.924-24.231
				c-1.118-3.285,1.325-14.722,0.387-17.086c-0.934-2.368-33.341,6.437-86.487,1.025c0,0,5.911,18.871,2.449,20.209
				c-3.465,1.342-1.766,24.533-1.766,24.533l-5.738-6.631c0,0-6.482-39.616-5.849-46.229c0.839-8.802-2.147-49.909,72.634-42.853
				c8.561,0.808,16.781,3.947,23.62,9.284c7.684,6,15.585,15.358,14.861,28.219C333.877,553.31,328.621,580.523,328.621,580.523z"/>
		</g>
		<path style="fill:#A77860;" d="M252.363,651.88c0,0,20.11,23.48,52.039,0c0,0-8.951,17.814-27.723,18.232
			C257.91,670.526,252.363,651.88,252.363,651.88z"/>
	</g>
	<g>
		<path style="fill:#E8734D;" d="M2123.052,639.192c0,0,14.718-27.896,10.59-56.787c-4.128-28.896-29.511-72.073-80.956-60.327
			c0,0-38.7,58.536-41.875,60.757c0,0-7.204,64.301-5.546,99.311c2.175,45.938,25.151,71.815,37.852,111.821
			c12.7,40.003,33.77,1.304,33.77,1.304l36.089-1.742l-18.705-147.622L2123.052,639.192z"/>
		<g>
			<path style="fill:#EEA886;" d="M2320.516,463.348c0,0-4.249-23.127-4.787-26.679c-0.541-3.555,3.743-12.621,9.566-22.602
				c5.826-9.986,18.165-20.865,20.153-20.978c1.991-0.118,3.949-1.156,8.307,1.521c4.358,2.681,6.569,7.339,6.569,7.339
				s6.924,0.779,9.215,6.727c0,0,6.48,1.031,7.979,8.213c0,0,6.301,1.175,6.945,6.487c0,0-4.278,9.095-4.891,12.917
				c-0.61,3.821-10.805,22.131-23.284,38.185C2356.288,474.478,2343.213,492.742,2320.516,463.348z"/>
		</g>
		<g>
			<path style="fill:#CF8C6C;" d="M2340.492,436.578c0,0,6.508,9.86,6.936,13.552c0.428,3.692,26-3.734,26-3.734
				S2352.685,428.988,2340.492,436.578z"/>
		</g>
		
			<rect x="2289.988" y="251.339" transform="matrix(0.4266 -0.9044 0.9044 0.4266 1023.9116 2348.9053)" style="fill:#2F4563;" width="149.149" height="231.087"/>
		<g>
			<path style="fill:#EEA886;" d="M2316.084,435.814c0,0,16.67-11.248,28.469-13.389c2.668-0.487,5.343-0.471,6.799,1.825
				c1.457,2.297-0.019,7.32-6.99,12.56c-6.973,5.24-13.587,15.207-13.587,15.207S2322.03,455.302,2316.084,435.814z"/>
		</g>
		<path style="fill:#EEA987;" d="M2324.732,434.399c0,0-10.973,46.794-24.645,64.544c-13.672,17.75,30.624,16.248,30.624,16.248
			l13.981-64.415L2324.732,434.399z"/>
		<g>
			<path style="fill:#272A45;" d="M2117.801,759.923c0,0-5.269-26.504,7.102-45.25c12.367-18.747,36.819-32.527,44.392-38.482
				c7.571-5.955,74.426-74.252,75.513-77.519c1.09-3.266,20.693-44.459,36.856-72.381c16.162-27.918,35.025-71.514,35.025-71.514
				l78.157,60.445c0,0-82.323,76.31-102.794,101.144c-21.864,26.526-130.882,149.656-130.882,149.656
				S2139.33,796.636,2117.801,759.923z"/>
		</g>
		<g>
			<path style="fill:#1D3B54;" d="M2275.412,1699.719c0,0,28.962,38.991,24.989,45.17c-3.974,6.18-34.43,7.062-52.969,0
				c-18.539-7.061-18.98-52.756-27.367-72.389c-3.51-8.221,4.003-32.481,14.567-34.242c10.563-1.761,22.055,3.411,22.055,3.411
				S2245.729,1669.321,2275.412,1699.719z"/>
		</g>
		<g>
			<g>
				<path style="fill:#EEA886;" d="M2256.882,1641.354c0,0,6.094,16.601,8.32,32.455c1.846,13.149,20.632,41.063,19.75,44.596
					c-0.882,3.532-24.719,6.73-34.43-2.373c-9.71-9.104-15.96-35.58-18.097-51.414c-1.992-14.75-4.506-22.035-4.506-22.035
					S2247.613,1631.642,2256.882,1641.354z"/>
			</g>
		</g>
		<g>
			<polygon style="fill:#1D3B54;" points="2219.29,1669.07 2219.29,1709.891 2224.587,1709.891 2224.587,1678.337 			"/>
		</g>
		<g>
			<path style="fill:#1D3B54;" d="M2023.326,1700.365c0,0,27.919,38.345,23.944,44.523c-3.972,6.18-34.428,7.062-52.967,0
				c-18.539-7.061-18.98-52.756-27.367-72.389c-3.512-8.221,4.003-32.481,14.565-34.242c10.566-1.761,22.954,3.784,22.954,3.784
				S1993.645,1669.968,2023.326,1700.365z"/>
		</g>
		<g>
			<g>
				<path style="fill:#EEA886;" d="M2004.456,1642.042c0,0,2.208,18.096,5.738,30.9c3.531,12.799,22.511,41.931,21.629,45.463
					c-0.884,3.532-24.718,6.73-34.43-2.373c-9.71-9.104-17.214-35.458-18.097-51.414c-0.884-15.955,2.205-26.359,2.205-26.359
					S1995.186,1632.33,2004.456,1642.042z"/>
			</g>
		</g>
		<g>
			<polygon style="fill:#1D3B54;" points="1966.161,1669.07 1966.161,1709.891 1971.458,1709.891 1971.458,1678.337 			"/>
		</g>
		<g>
			<g>
				<path style="fill:#4F5E8F;" d="M2143.964,1007.289c0,0,24.852,115.612,30.559,144.721
					c5.708,29.107,21.688,170.087,23.401,194.059c1.713,23.974,25.933,114.296,24.791,122.859
					c-1.142,8.56,37.268,178.449,37.268,178.449s-39.535,10.753-46.19,3.506c-5.651-6.152-62.453-161.501-62.453-204.307
					c0-59.171-44.632-134.511-50.279-147.747c-52.446-122.981-41.244-162.486-48.093-170.475c-6.85-7.989-7.443,4.935-11.438,22.628
					c-3.996,17.693-12.552,170.658-17.688,190.066c-5.138,19.404-1.148,85.043-4.002,118.148
					c-2.854,33.105-6.14,181.426-6.14,181.426s-28.637,6.582-42.242,0.24c-3.924-1.833-13.826-165.231-14.396-204.614
					s-1.179-93.694-2.283-110.727c-10.575-163.2-22.798-188.776,18.137-304.278
					C2049.555,804.986,2143.964,1007.289,2143.964,1007.289z"/>
			</g>
		</g>
		<g>
			<path style="fill:#EDDAD3;" d="M2079.633,699.25c0,0,25.938,12.248,34.947,14.05c9.006,1.802,43.953,47.197,50.077,63.768
				c6.126,16.571,0,41.433-12.609,70.613c-12.608,29.185-0.721,38.912-6.485,68.092c-5.765,29.185-10.809,90.972-9.727,107.182
				c1.08,16.215-145.721,19.275-179.227-10.271c0,0,33.675-50.433,37.998-57.639c4.324-7.206,0.721-46.478-3.243-56.563
				c-3.962-10.088-30.339-95.873-30.339-95.873s-21.579-65.887-2.085-81.024c16.933-13.149,63.082-17.837,71.367-20.72
				C2038.596,697.983,2062.699,696.729,2079.633,699.25z"/>
		</g>
		<g>
			<path style="fill:#97A6CC;" d="M2025.633,702.029c0,0,36.407,55.254,38.146,79.572c1.74,24.317-13.531,206.23-25.758,264.706
				c-12.229,58.476-87.236,2.552-87.236,2.552s46.024-105.25,23.233-182.202c-22.792-76.952-31.075-107.714-31.075-107.714
				s7.842-42.855,35.631-48.886C2002.939,704.771,2025.633,702.029,2025.633,702.029z"/>
		</g>
		<g>
			<path style="fill:#97A6CC;" d="M2167.053,784.449c0,0,6.571,23.237-19.015,74.598c0,0,0.407,65.734,1.128,86.271
				c0.721,20.534,15.24,94.376,15.24,94.376l-34.957,18.617c-5.096,2.984-11.405-1.156-10.694-7.02
				c7.164-59.095,30.474-283.258-19.876-343.514l20.203,5.959C2119.082,713.737,2154.978,743.108,2167.053,784.449z"/>
		</g>
		<path style="fill:#272A45;" d="M2096.608,700.995c0,0,48.996-8.282,60.841-16.545l-32.622,63.339L2096.608,700.995z"/>
		<path style="fill:#272A45;" d="M2138.438,727.483c0,0,26.407,25.96,29.371,69.035c2.964,43.075-1.389,157.504,5.139,190.571
			c6.525,33.067,97.058,552.443,97.058,552.443s-152.476,58.734-349.354,0c0,0,16.252-530.065,37.497-587.347
			c21.246-57.281-7.915-225.631-7.915-225.631s6.558-21.108,69.604-23.758L2138.438,727.483z"/>
		<g>
			<path style="fill:#D6C5BE;" d="M2087.918,757.075l15.762-18.458l-13.686-48.592
				C2089.994,690.025,2085.396,717.083,2087.918,757.075z"/>
		</g>
		<g>
			<path style="fill:#EEA886;" d="M2092.014,669.316c0,0-5.176,47.589-4.096,63.08c0,0-26.952,27.009-57.61-31.53
				c0,0,12.9-24.127,3.19-57.008C2023.791,610.981,2092.014,669.316,2092.014,669.316z"/>
		</g>
		<g>
			<polygon style="fill:#FAE6DE;" points="2103.68,738.617 2124.827,747.789 2089.994,690.025 			"/>
		</g>
		<g>
			<path style="fill:#A77860;" d="M2090.947,682.617l-1.145,9.594c0,0-21.171,3.958-49.203-30.233
				C2040.6,661.977,2060.468,686.215,2090.947,682.617z"/>
		</g>
		<g>
			<polygon style="fill:#EEA886;" points="2087.918,732.396 2087.918,757.075 2056.899,733.894 			"/>
		</g>
		<g>
			<polygon style="fill:#D6C5BE;" points="2087.918,757.075 2075.039,741.131 2031.654,697.892 2024.167,707.778 			"/>
		</g>
		<g>
			<polygon style="fill:#FAE6DE;" points="2075.039,741.131 2056.899,764.908 2019.838,702.797 2031.654,697.892 			"/>
		</g>
		<path style="fill:#EEA886;" d="M2083.635,533.509c0,0,54.77,29.051,41.909,94.774c-12.857,65.727-46.196,56.202-52.387,54.296
			c-6.19-1.905-40.482-13.335-45.722-61.917C2022.197,572.085,2033.626,517.313,2083.635,533.509z"/>
		<path style="fill:#E8734D;" d="M2110.146,578.911c0,0-12.065,38.102-63.819,45.722c-51.752,7.621-20.051-72.708-20.051-72.708
			s16.561-28.892,41.959-24.45c37.182,6.51,57.253,45.406,59.266,63.502c2.014,18.1,3.284,23.286,3.284,23.286
			S2121.576,585.581,2110.146,578.911z"/>
		<path style="fill:#717BC7;" d="M2037.755,528.744c0,0-25.731,8.35-23.178,41.911
			C2014.577,570.655,2019.022,541.764,2037.755,528.744z"/>
		<g>
			<rect x="1969.564" y="549.7" style="fill:#292929;" width="2.377" height="59.08"/>
		</g>
		<path style="fill:#292929;" d="M1970.791,606.909v-0.012c0,0-0.025,0.008-0.038,0.008c0,0-0.025-0.008-0.036-0.008v0.012
			c-5.601,0.262-4.955,29.086-4.955,29.086h4.955h0.074h4.952C1975.743,635.995,1976.392,607.171,1970.791,606.909z"/>
		<polygon style="fill:#272A45;" points="2128.605,551.51 2187.242,527.789 2078.992,480.087 1940.589,551.51 2006.604,576.078 		
			"/>
		<path style="fill:#51578F;" d="M2128.195,562.978c0,0-54.198-6.126-117.727,23.032l-7.846-20.165
			c0,0,71.608-26.907,127.035-20.233L2128.195,562.978z"/>
		<g>
			<g>
				<g>
					<g>
						<g>
							<path style="fill:#EEA886;" d="M1893.1,1128.533c0,0-2.112-4.537-2.068-6.971c0,0,0.42-4.426,0.528-7.586
								c0.03-1.004,0.034-1.878-0.023-2.445c-0.232-2.361-1.448-7.479-0.414-13.313c1.03-5.821,11.949-29.812,11.949-29.812
								l14.642,2.221l14.005,0.121c0,0,12.997,33.839,12.664,39.379c-0.036,0.54-0.091,1.076-0.181,1.57
								c-0.737,4.666-3.247,7.826-3.91,10.229c-0.251,0.882-3.324,9.476-5.889,10.404c-3.557,1.296-6.548,0.748-8.628-0.799
								c0,0-7.076,2.228-11.712,0.364c0,0-6.462,2.266-11.569-1.691C1902.493,1130.206,1895.68,1131.769,1893.1,1128.533z"/>
						</g>
					</g>
				</g>
			</g>
		</g>
		<path style="fill:#272A45;" d="M2013.6,704.523c0,0-42.198-2.601-63.365,22.032c-21.167,24.629-20.011,53.875-25.399,66.575
			c-5.388,12.7-17.702,67.347-20.397,76.199c-2.694,8.852-16.467,44.231-25.614,98.182c-6.719,39.642-17.87,120.867-17.87,120.867
			l77.841-14.111c0,0-4.596-70.115-3.569-111.422c1.026-41.311,34.636-114.296,47.336-146.237
			C1995.26,784.666,2045.82,724.563,2013.6,704.523z"/>
	</g>
	<g>
		<path style="fill:#FAB46C;" d="M740.049,1650.691c0,0-13.935,12.217-26.452,30.984c-12.507,18.767-45.727,19.766-47.148,45.385
			c-1.422,25.622,45.161,26.409,69.619,18.07c24.455-8.344,28.155-33.367,42.94-39.624c14.791-6.257,22.47-11.317,21.332-23.535
			c-1.138-12.214-9.321-32.042-9.321-32.042s-9.188,2.935-14.592,3.53C771.023,1654.057,752.847,1654.267,740.049,1650.691z"/>
		<path style="fill:#5F8CC9;" d="M907.683,956.547c0,0-9.373,55.741-16.927,92.561c0,0,0,0,0,0.004
			c-3.064,14.927-5.83,26.747-7.545,30.472c-2.16,4.678-19.753,23.571-41.286,45.742c-37.782,38.892-87.699,87.871-87.699,87.871
			l-19.514-37.044c0,0,44.338-51.981,74.393-86.658c13.914-16.056,24.77-28.396,26.754-30.176
			c6.284-5.624,13.578-61.017,23.829-106.656c10.253-45.642,30.799-70.862,30.799-70.862L907.683,956.547z"/>
		<path style="fill:#EEA886;" d="M841.925,1125.325c-37.782,38.892-87.699,87.871-87.699,87.871l-19.514-37.044
			c0,0,44.338-51.981,74.393-86.658C818.324,1094.012,835.236,1104.788,841.925,1125.325z"/>
		<rect x="640.391" y="1303.682" style="fill:#807066;" width="14.888" height="359.569"/>
		<rect x="1227.453" y="1303.682" style="fill:#807066;" width="14.888" height="359.569"/>
		<rect x="584.631" y="1284.167" style="fill:#2F4563;" width="722.397" height="25.801"/>
		<g>
			<path style="fill:#FAB46C;" d="M1084.222,1635.432c0,0,12.834,14.186,20.422,22.787c7.587,8.602,36.65,23.977,36.807,49.521
				c0.17,27.701-21.441,25.274-40.668,24.264c-19.227-1.014-34.85-14.295-42.946-29.983c-8.093-15.684-29.631-19.805-31.147-32.454
				c-1.519-12.646,9.984-35.413,9.984-35.413L1084.222,1635.432z"/>
		</g>
		<path style="fill:#5F8CC9;" d="M1039.154,1610.574l-2.48,23.58c0,0,40.129,17.484,47.548,1.277l-1.722-21L1039.154,1610.574z"/>
		<path style="fill:#5F8CC9;" d="M742.233,1633.625l-2.184,17.066c0,0,24.252,8.571,50.97-0.762l0.542-15.176L742.233,1633.625z"/>
		<path style="fill:#5F8CC9;" d="M1086.491,1205.663c1.395,4.961-256.858,0-256.858,0s71.436-52.002,76.066-65.889
			c4.632-13.89-18.189-97.238-21.163-124.358c-2.381-21.698-8.351-118.788,5.951-133.616c14.952-15.502,68.793-31.749,68.793-31.749
			l78.496,2.911c0,0,12.952,2.711,22.212,7.01c9.261,4.299,62.219,23.163,70.82,49.621c8.595,26.457-52.843,111.53-52.843,111.53
			s-0.121,3.824-0.306,10.09c0,0.003,0,0.003,0,0.003c-0.236,8.354-0.59,21.048-0.907,34.823
			c-0.412,17.835-0.772,37.474-0.772,51.82C1075.98,1151.592,1085.099,1200.701,1086.491,1205.663z"/>
		<path style="fill:#EDDAD3;" d="M1086.491,1205.663c0,0,35.128,51.593,35.622,86.816c0.499,35.219-13.012,132.887-14.002,152.231
			c-0.992,19.348-19.181,180.583-19.181,180.583s-14.059,13.065-56.225-3.307c0,0-9.31-152.906-10.302-169.277
			c-0.989-16.367-0.989-91.773-10.419-102.686c-9.424-10.913-66.472-45.146-73.912-51.594
			c-7.442-6.446-137.077,24.495-150.655,28.017c-35.18,9.124-19.145,70.323-11.36,97.758
			c13.019,45.905,24.394,211.673,24.394,211.673s-25.054,10.674-67.017,1.655c0,0-82.402-299.318-85.043-329.082
			c-2.644-29.768-3.945-78.85,199.111-116.156L1086.491,1205.663z"/>
		<path style="fill:#EEA886;" d="M980.818,679.506c0,0-68.136-15.37-52.574,70.381c15.566,85.75,31.952,92.488,73.059,74.744
			c41.106-17.747,37.424-72.687,39.497-99.625C1042.87,698.064,1002.553,680.444,980.818,679.506z"/>
		<path style="fill:#EEA886;" d="M962.786,872.061c0,0,30.179,31.991,77.873,2.92c0,0-10.671-69.334-5.053-103.104
			c5.612-33.771-62.227,52.325-62.227,52.325c0.896,0.469,1.486,3.688,1.622,8.274c0.115,3.885-0.091,8.753-0.714,13.742
			C972.885,857.442,969.393,869.299,962.786,872.061z"/>
		<path style="fill:#3A3F47;" d="M1037.481,769.008c0,0-1.761-27.02-11.63-27.861c-9.866-0.844-11.385,10.038-11.385,10.038
			l-9.966,1.879c0,0,3.149-23.68-6.705-27.816c-9.851-4.139-63.84,13.037-71.751,6.084c-7.909-6.952-4.188-54.984,10.117-61.556
			c14.304-6.578,53.81-21.305,82.755-1.712c0,0,22.564-2.575,25.907,15.635C1048.173,701.907,1043.614,755.469,1037.481,769.008z"/>
		<path style="fill:#A77860;" d="M974.286,846.218c49.203-15.17,52.909-44.798,52.964-45.261
			c-16.205,27.84-52.25,31.519-52.25,31.519C975.115,836.361,974.909,841.229,974.286,846.218z"/>
		<path style="fill:#EEA886;" d="M1060.799,860.344c0,0-36.034,71.727-94.243,67.099c-58.209-4.632-9.92-76.729-7.276-77.392
			C962.187,849.316,1018.977,835.166,1060.799,860.344z"/>
		<path style="fill:#5F8CC9;" d="M800.089,1202.029c0,0,178.351,21.992,286.402,3.634l-206.463-25.795
			C880.028,1179.868,878.808,1185.132,800.089,1202.029z"/>
		<path style="fill:#EEA886;" d="M933.484,1171.744l-13.285,6.729c0,0,3.022,21.105,10.299,27.502l14.906-3.804
			C945.405,1202.171,942.304,1179.021,933.484,1171.744z"/>
		<path style="fill:#5F8CC9;" d="M1139.86,1128.532c-2.654,3.073-37.719,17.175-77.325,32.43l-0.006,0.006
			c-54.113,20.846-115.152,40.566-115.152,40.566l-13.893-29.789c0,0,63.922-34.732,107.113-59.09
			c20.4-11.506,36.178-20.697,38.408-22.824c6.943-6.613,8.744-17.221,3.636-35.719c-5.104-18.497-16.864-103.519-18.192-113.442
			c-1.319-9.92,3.31-36.378,28.112-37.703c24.809-1.322,37.431,5.679,37.431,5.679s6.229,2.589,10.858,62.784
			C1145.484,1031.62,1146.146,1121.253,1139.86,1128.532z"/>
		<path style="fill:#5075A8;" d="M1077.659,1031.212c0,0.003,0,0.003,0,0.003c-0.236,8.354-0.59,21.048-0.907,34.823
			c-24.213-59.345-10.223-106.699-9.987-107.497C1064.145,974.645,1077.469,1030.417,1077.659,1031.212z"/>
		<path style="fill:#5075A8;" d="M890.756,1049.107c0,0,0,0,0,0.004c-3.064,14.927-5.83,26.747-7.545,30.472
			c-8.269-40.021-0.829-91.257-0.829-91.257C883.513,1012.802,890.756,1049.107,890.756,1049.107z"/>
		<path style="fill:#EEA886;" d="M1062.535,1160.962l-0.006,0.006c-54.113,20.846-117.124,41.203-117.124,41.203l-11.92-30.427
			c0,0,63.922-34.732,107.113-59.09C1040.598,1112.654,1056.308,1120.306,1062.535,1160.962z"/>
		<polygon style="fill:#5E5853;" points="929.636,1203.936 676.143,1200.205 804.128,1265.194 		"/>
		<polygon style="fill:#91887F;" points="804.128,1265.194 929.636,1216.578 929.636,1203.936 794.208,1252.79 		"/>
		<g>
			<path style="fill:#EEA886;" d="M923.065,1178.936c0,0-15.833-2.466-26.775-5.013c-8.471-1.973-29.532,0.747-34.893,6.181
				c-5.367,5.434-22.421,43.307-25.65,45.621c-3.225,2.309,1.652,7.657,7.319,4.971c0,0,5.204,16.57,18.04,10.368
				c12.837-6.205,21.554-19.747,28.279-22.137c6.722-2.382,45.872-14.42,45.872-14.42S933.155,1174.903,923.065,1178.936z"/>
		</g>
		<g>
			<path style="fill:#EEA886;" d="M865.261,1177.623c0,0-10.169,4.91-12.825,7.101c-2.656,2.19-13.421,10.247-16.026,12.144
				c-2.608,1.891,3.933,7.285,23.175-1.047C878.827,1187.482,865.261,1177.623,865.261,1177.623z"/>
		</g>
		<polygon style="fill:#6E6760;" points="804.128,1265.194 728.725,1059.321 485.647,1063.288 557.508,1253.005 		"/>
		<path style="fill:#807066;" d="M650.95,1150.396c7.418,14.825,5.176,30.978-5.007,36.07c-10.178,5.091-24.446-2.802-31.861-17.63
			c-7.419-14.828-5.176-30.978,5.001-36.069C629.266,1127.676,643.531,1135.566,650.95,1150.396z"/>
	</g>
	<g>
		<g>
			<path style="fill:#DA9B5E;" d="M1411.292,702.095c0,0-17.629,87.353-7.704,174.29c9.926,86.938-9.602,225.147-9.602,225.147
				l98.011-142.846L1411.292,702.095z"/>
		</g>
		<g>
			<path style="fill:#EDDAD3;" d="M1299.188,1702.172c0,0-27.737,37.081-23.932,42.959c3.806,5.877,32.976,6.719,50.729,0
				c17.754-6.715,18.179-50.176,26.208-68.848c3.364-7.818-3.831-30.891-13.948-32.566c-10.118-1.672-21.125,3.243-21.125,3.243
				S1327.617,1673.262,1299.188,1702.172z"/>
		</g>
		<g>
			<g>
				<path style="fill:#EEA886;" d="M1316.936,1646.659c0,0-5.836,15.79-7.969,30.868c-1.768,12.506-19.759,39.058-18.914,42.415
					c0.847,3.36,23.673,6.401,32.975-2.258c9.299-8.656,15.282-33.835,17.332-48.896c1.906-14.029,4.314-20.958,4.314-20.958
					S1325.813,1637.424,1316.936,1646.659z"/>
			</g>
		</g>
		<g>
			<path style="fill:#EDDAD3;" d="M1540.619,1702.786c0,0-26.736,36.467-22.935,42.345c3.806,5.877,32.975,6.719,50.729,0
				c17.758-6.715,18.18-50.176,26.213-68.848c3.36-7.818-3.835-30.891-13.952-32.566c-10.118-1.672-21.982,3.598-21.982,3.598
				S1569.047,1673.879,1540.619,1702.786z"/>
		</g>
		<g>
			<g>
				<path style="fill:#EEA886;" d="M1558.692,1647.314c0,0-2.114,17.214-5.497,29.388c-3.38,12.174-21.56,39.883-20.715,43.24
					c0.848,3.36,23.673,6.401,32.976-2.258c9.299-8.656,16.487-33.724,17.331-48.896c0.845-15.174-2.113-25.071-2.113-25.071
					S1567.569,1638.08,1558.692,1647.314z"/>
			</g>
		</g>
		<g>
			<g>
				<path style="fill:#D3E1D5;" d="M1425.08,1043.608c0,0-23.8,109.961-29.266,137.644c-5.468,27.686-20.773,161.769-22.413,184.568
					c-1.641,22.8-24.837,108.704-23.743,116.849c1.094,8.142-37.673,169.538-37.673,169.538s47.931,3.69,58.88-0.668
					c7.486-2.98,47.151-149.418,47.151-190.129c0-56.277,33.023-129.748,37.813-142.562
					c47.119-126.087,55.766-156.006,62.324-163.604c0,0,0.995,10.284,3.23,27.369c2.573,19.65,13.82,159.974,18.741,178.432
					c4.919,18.454,1.1,80.881,3.831,112.369c2.734,31.484,7.806,175.102,7.806,175.102s37.692,1.039,48.565-5.129
					c3.648-2.066,3.207-154.344,3.754-191.799c0.547-37.455,1.129-89.111,2.188-105.312
					c10.127-155.219,35.019-177.385-4.186-287.237C1528.682,853.362,1425.08,1043.608,1425.08,1043.608z"/>
			</g>
		</g>
		<g>
			<polygon style="fill:#EDDAD3;" points="1352.939,1673.021 1352.939,1711.842 1347.865,1711.842 1347.865,1681.838 			"/>
		</g>
		<g>
			<polygon style="fill:#EDDAD3;" points="1595.367,1673.021 1595.367,1711.842 1590.296,1711.842 1590.296,1681.838 			"/>
		</g>
		<path style="fill:#FFF8F1;" d="M1405.933,721.928c0,0-25.352,103.93-19.525,124.527c5.823,20.597,35.773,41.328,36.934,44.126
			c1.161,2.801,20.031,62.672,19.318,72.867c-0.713,10.198-17.579,80.161-17.579,80.161s78.579,36.112,174.908-48.979
			c0,0-22.391-68.157-23.04-78.195c-0.649-10.041-3.418-85.099-0.073-94.222c3.342-9.127,9.481-99.552,5.145-108.4
			c-4.336-8.849-52.996-33.362-90.023-40.868C1454.97,665.443,1405.933,721.928,1405.933,721.928z"/>
		<g>
			<path style="fill:#454442;" d="M1365.299,519.91c0,0-39.406,25.122-32.393,60.559c10.84,54.791,51.256,70.658,54.611,105.794
				c3.351,35.137-12.254,47.72-12.254,47.72l61.013-54.004L1365.299,519.91z"/>
		</g>
		<g>
			<path style="fill:#EEA886;" d="M1305.859,710.774c0,0,11.634-27.459,13.197-38.418c1.564-10.958,11.077-42.629,10.888-45.302
				c-0.185-2.673,33.26-50.55,32.962-56.258c-0.3-5.708,12.146-1.385,4.017,15.713c-8.128,17.099-19.346,46.15-14.496,51.691
				c4.851,5.542,20.04-10.255,26.014-8.24c5.97,2.015,5.238,1.365,4.454,4.458c-0.78,3.092-23.203,12.721-26.301,22.196
				c-3.096,9.472-14.965,18.435-17.428,25.627c-2.462,7.194-15.18,41.586-15.18,41.586L1305.859,710.774z"/>
		</g>
		<g>
			<path style="fill:#FFCA55;" d="M1427.924,686.868l-7.291,27.088l-21.102,78.374c0,0-7.029,5.765-16.945,13.785
				c-21.908,17.729-71.383,50.857-76.727,52.75c-6.926,2.46-42.104,3.432-44.41-20.549c-2.306-23.979,53.092-162.292,53.092-162.292
				c17.085-4.157,34.935,3.703,34.935,3.703l-28.169,110.882c0.406-0.266,19.935-12.855,36.186-36.521
				c8.433-12.276,26.852-29.732,42.735-43.777c10.754-9.507,20.347-17.45,24.901-21.172
				C1426.913,687.677,1427.924,686.868,1427.924,686.868z"/>
		</g>
		<g>
			<path style="fill:#EEA886;" d="M1489.368,670.354c-5.215,56.05-35.386,96.799-47.115,103.009
				c-11.729,6.207-24.741-58.289-18.33-69.717c1.717-3.061,1.992-7.502,1.477-12.359c-0.972-9.219-4.796-19.951-7.048-25.665
				c-1.001-2.533-1.691-4.084-1.691-4.084s38.082-73.817,45.798-34.855C1470.172,665.651,1489.368,670.354,1489.368,670.354z"/>
		</g>
		<g>
			<path style="fill:#C48A6F;" d="M1452.524,650.227c-0.144,0.467-9.539,30.216-27.124,41.06
				c-0.972-9.219-4.796-19.951-7.048-25.665L1452.524,650.227z"/>
		</g>
		<g>
			<path style="fill:#EEA886;" d="M1347.196,538.297c0,0,4.247,74.527,26.42,107.796c35.572,53.38,52.523,35.495,75.013,9.494
				c32.489-37.551-12.11-133.592-12.11-133.592L1347.196,538.297z"/>
		</g>
		<g>
			<path style="fill:#454442;" d="M1345.712,598.37c0,0,23.622,5.647,57.537-14.863c33.663-20.357,47.292,57.678,55.379,59.769
				c8.087,2.088,12.673-85.009-5.612-105.363c-18.285-20.354-51.068-45.251-83.714-24.392
				C1333.542,536.369,1328.339,567.352,1345.712,598.37z"/>
		</g>
		<g>
			<path style="fill:#FFCA55;" d="M1642.368,1187.066c-0.905-17.856-18.979-60.16-41.977-109.91
				c-5.333-11.519-10.914-23.449-16.618-35.56c-4.25-9.021-8.57-18.153-12.878-27.302c-28.111-59.622-56.181-119.961-66.769-156.738
				c-23.775-82.688,0.495-183.327,0.495-183.327c0.013,0,0.013,0,0.013,0c27.866,4.729,65.644,20.677,75.011,32.95c0,0,0,0,0,0.016
				c0.396,0.505,0.741,1.164,1.07,1.931c3.249,5.955,11.902,31.677,21.557,50.685c0,0-12.986,9.587-22.094,30.896
				c-3.837,8.966-6.718,18.784-7.144,28.549c-0.205,4.359,0.096,8.721,1.014,12.999c0.304,1.385,0.659,2.756,1.1,4.128
				c11.849,37.232,24.78,78.137,24.78,78.137c0.15,3.591,0.671,7.419,1.518,11.448c0.016,0.054,0.016,0.083,0.016,0.083v0.013
				c1.727,8.227,4.759,17.306,8.583,26.935c0.454,1.135,0.921,2.29,1.385,3.44c0.016,0.029,0.016,0.042,0.016,0.042
				c6.597,16.056,15.192,33.554,23.545,51.231c13.603,28.837,26.519,58.17,28.963,82.62
				C1669.354,1144.488,1642.368,1187.066,1642.368,1187.066z"/>
		</g>
		<g>
			<path style="fill:#454442;" d="M1354.88,526.19c0,0,12.295-20.731,49.115-22.56c28.012-1.391,71.898,27.245,76.768,84.804
				c6.236,73.721,40.547,87.34,56.095,94.589c15.547,7.249-53.006,2.58-73.68-29.48c-9.395-14.572-21.863-35.972-26.295-51.103
				c-4.429-15.135-37.743-72.844-62.046-62.052C1350.532,551.178,1354.88,526.19,1354.88,526.19z"/>
		</g>
		<g>
			<path style="fill:#EEA886;" d="M1430.114,604.455c-3.165-9.379,10.815-19.404,16.044-12.247
				c5.228,7.157,3.664,32.809-5.027,30.015C1432.436,619.427,1430.114,604.455,1430.114,604.455z"/>
		</g>
		<g>
			<polygon style="fill:#C28852;" points="1321.307,790.609 1309.709,827.469 1335.013,779.73 			"/>
		</g>
		<g>
			<path style="fill:#FFCA55;" d="M1425.129,689.138c0,0,2.001,8.81-0.525,23.609c-4.032,23.615-13.459,60.613-14.604,87.241
				c-1.858,43.31,23.871,119.944-6.005,286.956c-4.944,8.151-10.294,15.017-15.8,24.348c0.157-1.359,21.882-196.598,4.036-244.241
				c-9.968-26.618-11-25.288-9.644-60.937c1.045-27.504,1.551-52.958,12.765-89.911
				C1406.102,706.697,1420.575,692.86,1425.129,689.138z"/>
		</g>
		<path style="fill:#C28852;" d="M1611.445,956.482c-24.082-25.617-56.223-148.168-56.223-148.168
			c6.773-0.688,12.683,3.62,17.812,10.942c20.117,28.7,28.111,103.834,28.412,106.712c0.016,0.054,0.016,0.083,0.016,0.083v0.013
			c1.727,8.227,4.759,17.306,8.583,26.935c0.454,1.135,0.921,2.29,1.385,3.44C1611.445,956.47,1611.445,956.482,1611.445,956.482z"
			/>
		<g>
			<path style="fill:#EEA886;" d="M1733.181,981.595c0,0,13.45,5.203,19.849-1.583c4.883-5.177,13.401-14.707,14.741-17.479
				c1.237-2.558,8.545-12.679,9.955-7.425c1.41,5.25-6.889,28.607-10.607,31.453c-3.719,2.846,16.175,7.537,19.081,11.343
				c2.91,3.806-7.349,37.308-20.6,32.46c-13.251-4.844-22.938-18.547-25.211-19.666c-3.828-1.887-18.742-8.119-18.742-8.119
				L1733.181,981.595z"/>
		</g>
		<g>
			<path style="fill:#EEA886;" d="M1783.386,996.017c0,0,39.543,17.619,41.164,21.079c1.621,3.457,0.509,5.619-3.259,4.129
				c-3.767-1.487-38.711-15.877-38.711-15.877s43.186,28.99,45.126,31.511c1.136,1.477-0.777,5.784-2.871,5.183
				c-2.092-0.604-46.563-26.794-46.563-26.794s40.275,27.147,41.27,29.766c0.873,2.293-1.839,5.819-4.966,4.02
				c-3.127-1.798-41.948-24.796-41.948-24.796s27.523,21.595,27.609,24.431c0.073,2.473-1.755,5.487-8.819-0.342
				c-7.063-5.829-25.179-17.757-25.179-17.757L1783.386,996.017z"/>
		</g>
		<g>
			<path style="fill:#FFCA55;" d="M1615.196,804.506c7.896,37.894,22.784,92.367,26.657,99.069
				c1.726,2.99,8.288,8.212,17.277,15.733c13.043,10.914,85.687,62.743,85.687,62.743c0.323,13.021-17.415,31.092-17.415,31.092
				c-11.848-7.291-36.419-21.754-62.74-35.958c-30.32-16.363-52.229-32.627-57.917-41.226
				c-10.623-16.062-47.561-113.792-55.043-138.392c-2.881-9.475-6.149-25.313-9.075-41.209c-3.856-20.952-7.121-41.999-8.148-48.705
				c-0.197-1.314-0.313-2.079-0.326-2.184c0-0.006-0.003-0.013-0.003-0.013s15.711-20.565,44.468,0.496
				C1578.617,705.952,1598.98,726.68,1615.196,804.506z"/>
		</g>
		<g>
			<path style="fill:#E8586E;" d="M1672.718,1526.276c-22.649,0-41.078-16.944-41.078-37.768c0-20.826,18.429-37.771,41.078-37.771
				c22.653,0,41.081,16.945,41.081,37.771C1713.799,1509.332,1695.371,1526.276,1672.718,1526.276z M1672.718,1459.066
				c-17.405,0-31.565,13.207-31.565,29.441c0,16.232,14.16,29.438,31.565,29.438c17.408,0,31.568-13.206,31.568-29.438
				C1704.286,1472.273,1690.126,1459.066,1672.718,1459.066z"/>
		</g>
		<rect x="1570.137" y="1621.688" style="fill:#AD4253;" width="205.165" height="102.383"/>
		<path style="fill:#F55D74;" d="M1579.586,1743.209c0,0-0.872-22.97,0-146.399c0.905-128.221,94.231-126.305,94.231-126.305
			s93.33-1.916,94.235,126.305c0.873,123.43,0,146.399,0,146.399H1579.586z"/>
		<rect x="1600.877" y="1621.688" style="fill:#FF6179;" width="145.881" height="102.383"/>
		<rect x="1600.877" y="1621.688" style="fill:#C24A5C;" width="145.881" height="28.467"/>
	</g>
</g>
</svg>
